<svg width="16" height="17" viewBox="0 0 16 17" fill="none" xmlns="http://www.w3.org/2000/svg">
    <path d="M12.7767 9.47656C13.0744 9.77427 13.0744 10.257 12.7767 10.5547C12.479 10.8524 11.9963 10.8524 11.6986 10.5547L7.2611 6.11718C6.96339 5.81947 6.96339 5.33677 7.2611 5.03906C7.55882 4.74134 8.04151 4.74134 8.33923 5.03906L12.7767 9.47656Z" fill="#272727"/>
    <path d="M2.71423 9.47656C2.41651 9.77427 2.41651 10.257 2.71423 10.5547C3.01194 10.8524 3.49464 10.8524 3.79235 10.5547L8.22985 6.11718C8.52757 5.81947 8.52757 5.33677 8.22985 5.03906C7.93214 4.74134 7.44944 4.74134 7.15173 5.03906L2.71423 9.47656Z" fill="#272727"/>
</svg>
