<svg width="12" height="12" viewBox="0 0 12 12" fill="none" xmlns="http://www.w3.org/2000/svg">
    <path d="M6.14819 9.93193L6.14818 9.9319L6.14331 9.93362C6.12847 9.93886 6.07648 9.95011 5.99973 9.95011C5.92297 9.95011 5.87098 9.93886 5.85614 9.93362L5.85615 9.93359L5.85126 9.93193C5.19802 9.70892 4.09344 9.11038 3.1588 8.15275C2.23018 7.2013 1.49973 5.92879 1.49973 4.34511C1.49973 3.07392 2.5232 2.05011 3.77973 2.05011C4.52404 2.05011 5.18309 2.40911 5.59831 2.96822C5.69264 3.09524 5.84152 3.17011 5.99973 3.17011C6.15794 3.17011 6.30681 3.09524 6.40114 2.96822C6.81605 2.40952 7.47992 2.05011 8.21973 2.05011C9.47625 2.05011 10.4997 3.07392 10.4997 4.34511C10.4997 5.92879 9.76927 7.2013 8.84065 8.15276C7.90601 9.11038 6.80143 9.70892 6.14819 9.93193Z" stroke="url(#paint0_linear_15_452)" stroke-linecap="round" stroke-linejoin="round"/>
    <defs>
        <linearGradient id="paint0_linear_15_452" x1="1.0007" y1="5.99891" x2="11.0045" y2="5.99891" gradientUnits="userSpaceOnUse">
            <stop stop-color="#F26608"/>
            <stop offset="1" stop-color="#E01742"/>
            <stop offset="1" stop-color="#E01742"/>
        </linearGradient>
    </defs>
</svg>
