<svg width="12" height="12" viewBox="0 0 12 12" fill="none" xmlns="http://www.w3.org/2000/svg">
    <path fill-rule="evenodd" clip-rule="evenodd" d="M6.19349 2.089C6.11504 1.93128 6.04305 1.84789 5.99885 1.80897C5.95389 1.848 5.88054 1.93199 5.80042 2.09125C5.80032 2.09144 5.80023 2.09162 5.80013 2.09181L4.92194 3.8482C4.79466 4.10629 4.59186 4.31166 4.39859 4.45496C4.20443 4.59893 3.95019 4.73193 3.67058 4.77941L3.66794 4.77986L2.07332 5.0448C1.90143 5.07344 1.80524 5.11869 1.76041 5.14806C1.77983 5.19822 1.83191 5.29123 1.95535 5.41467L3.19535 6.65467C3.41274 6.87206 3.54714 7.14943 3.61918 7.4011C3.69132 7.65311 3.72333 7.95748 3.65686 8.25403L3.65575 8.259L3.30073 9.79399C3.25754 9.98065 3.25095 10.1116 3.25673 10.1943C3.33772 10.1747 3.4613 10.1285 3.62725 10.03L3.62796 10.0296L5.12784 9.14172C5.4063 8.97971 5.72437 8.92 6.00189 8.92C6.27873 8.92 6.59842 8.97948 6.87737 9.14478L8.37146 10.0292C8.53772 10.1275 8.66186 10.1742 8.74388 10.1944C8.74921 10.1109 8.7421 9.97973 8.6992 9.79354C8.69919 9.7935 8.69921 9.79358 8.6992 9.79354L8.34316 8.25404C8.27669 7.95748 8.30871 7.65311 8.38085 7.40109C8.45289 7.14943 8.58729 6.87206 8.80469 6.65467L10.0465 5.41286C10.1695 5.29074 10.2217 5.19866 10.2414 5.1488C10.1961 5.11907 10.0992 5.07354 9.92672 5.0448L8.33209 4.77986C8.05074 4.73297 7.79461 4.60073 7.59847 4.456C7.4036 4.31221 7.20046 4.1065 7.07306 3.84815L6.19349 2.089ZM7.74502 3.515C7.86502 3.76 8.18502 3.995 8.45502 4.04L10.05 4.305C11.07 4.475 11.31 5.215 10.575 5.945L9.33502 7.185C9.12502 7.395 9.01002 7.8 9.07502 8.09L9.43002 9.625C9.71002 10.84 9.06502 11.31 7.99002 10.675L6.49502 9.79C6.22502 9.63 5.78002 9.63 5.50502 9.79L4.01002 10.675C2.94002 11.31 2.29002 10.835 2.57002 9.625L2.92502 8.09C2.99002 7.8 2.87502 7.395 2.66502 7.185L1.42502 5.945C0.695015 5.215 0.930016 4.475 1.95002 4.305L3.54502 4.04C3.81002 3.995 4.13002 3.76 4.25002 3.515L5.13002 1.755C5.61002 0.8 6.39002 0.8 6.86502 1.755L7.74502 3.515ZM10.2697 5.17107C10.2697 5.17107 10.2695 5.17085 10.2691 5.17041L10.2697 5.17107ZM10.2516 5.11511C10.2517 5.11466 10.2517 5.11442 10.2517 5.11442L10.2516 5.11511ZM1.75051 5.11403C1.75052 5.11403 1.75055 5.11431 1.75058 5.11487L1.75051 5.11403ZM1.73307 5.16934C1.73275 5.16974 1.73257 5.16994 1.73256 5.16994L1.73307 5.16934ZM6.0344 1.78331C6.0344 1.78332 6.03416 1.78344 6.0337 1.78363L6.0344 1.78331ZM5.96409 1.78332C5.96375 1.78318 5.96358 1.7831 5.96358 1.78309L5.96409 1.78332Z" fill="url(#paint0_linear_15_470)"/>
    <defs>
        <linearGradient id="paint0_linear_15_470" x1="1.00152" y1="5.99698" x2="11.0065" y2="5.99698" gradientUnits="userSpaceOnUse">
            <stop stop-color="#F26608"/>
            <stop offset="1" stop-color="#E01742"/>
            <stop offset="1" stop-color="#E01742"/>
        </linearGradient>
    </defs>
</svg>
